<svg xmlns="http://www.w3.org/2000/svg" version="1.1" xmlns:xlink="http://www.w3.org/1999/xlink" xmlns:svgjs="http://svgjs.dev/svgjs" width="2000" height="1000" preserveAspectRatio="none" viewBox="0 0 2000 1000"><g mask="url(&quot;#SvgjsMask1013&quot;)" fill="none"><rect width="2000" height="1000" x="0" y="0" fill="#1e3266"></rect><path d="M2033.3333333333337 1000L0 1000 L0 663.18Q87.37 583.88, 166.66666666666669 671.25Q183.76 521.68, 333.33333333333337 538.77Q404.89 443.66, 500.00000000000006 515.22Q653.03 501.59, 666.6666666666667 654.62Q674.67 495.95, 833.3333333333335 503.95Q889 459.62, 933.3333333333335 515.28Q991.31 473.25, 1033.3333333333335 531.23Q1112.42 510.32, 1133.3333333333335 589.4Q1225.8 581.87, 1233.3333333333335 674.33Q1292.09 566.42, 1400.0000000000002 625.17Q1417.34 542.51, 1500.0000000000002 559.85Q1542.19 502.04, 1600.0000000000002 544.23Q1722.26 499.83, 1766.666666666667 622.09Q1804.98 493.73, 1933.3333333333337 532.04Q1972.98 471.68, 2033.3333333333337 511.33z" fill="#182f5d"></path><path d="M2100.0000000000005 1000L0 1000 L0 654.71Q100.81 588.86, 166.66666666666669 689.67Q257.4 680.4, 266.6666666666667 771.13Q270.72 675.18, 366.6666666666667 679.24Q457.59 603.49, 533.3333333333334 694.41Q641.71 636.12, 700 744.5Q801.44 679.28, 866.6666666666667 780.72Q923.52 670.91, 1033.3333333333335 727.76Q1102.45 630.21, 1200.0000000000002 699.33Q1251 583.67, 1366.666666666667 634.67Q1422.67 590.67, 1466.666666666667 646.67Q1524.85 604.85, 1566.666666666667 663.03Q1638.2 634.57, 1666.666666666667 706.1Q1764.63 637.39, 1833.3333333333337 735.35Q1862.37 664.39, 1933.3333333333337 693.43Q2047.69 641.12, 2100.0000000000005 755.47z" fill="#25467d"></path><path d="M2000.0000000000005 1000L0 1000 L0 883.66Q24.31 807.97, 100 832.29Q143.69 709.31, 266.6666666666667 753Q327.39 713.72, 366.6666666666667 774.44Q474.4 782.17, 466.6666666666667 889.9Q522.17 845.4, 566.6666666666667 900.91Q582.48 750.06, 733.3333333333335 765.87Q789.39 721.93, 833.3333333333335 777.99Q980.82 758.81, 1000.0000000000002 906.3Q1025.49 831.79, 1100.0000000000002 857.28Q1131.78 722.4, 1266.666666666667 754.18Q1324.59 712.1, 1366.666666666667 770.02Q1525.62 762.31, 1533.3333333333337 921.26Q1571.54 859.47, 1633.3333333333337 897.68Q1620.25 784.6, 1733.3333333333337 771.52Q1810.29 681.81, 1900.0000000000005 758.77Q1981.24 740.01, 2000.0000000000005 821.25z" fill="#356cb1"></path><path d="M2066.666666666667 1000L0 1000 L0 963.25Q69.81 933.06, 100 1002.87Q138.23 941.1, 200 979.33Q248.01 860.67, 366.6666666666667 908.68Q466.02 841.37, 533.3333333333334 940.73Q575.61 883.01, 633.3333333333334 925.29Q758.64 883.93, 800 1009.24Q802.64 911.88, 900 914.52Q967.89 815.74, 1066.6666666666667 883.63Q1185.27 835.57, 1233.3333333333335 954.17Q1310.09 864.26, 1400.0000000000002 941.01Q1526.56 900.9, 1566.666666666667 1027.46Q1644.41 938.53, 1733.3333333333337 1016.27Q1800.21 916.48, 1900.0000000000005 983.36Q1961.96 878.66, 2066.666666666667 940.62z" fill="white"></path></g><defs><mask id="SvgjsMask1013"><rect width="2000" height="1000" fill="#ffffff"></rect></mask></defs></svg>